<?xml version="1.0" encoding="utf-8"?>
<svg version="1.1" id="Layer_1" xmlns="http://www.w3.org/2000/svg" xmlns:xlink="http://www.w3.org/1999/xlink" x="0px" y="0px"
	 viewBox="0 0 100 100" style="enable-background:new 0 0 100 100;" xml:space="preserve">
<style type="text/css">
	.st0{fill: #F0CD00;}
	.st1{fill: #FFDE50;}
	.st2{fill: #FFEA94;}
	.st3{fill: #FAA300;}
	.st4{fill: #FFBD00;}
	.st5{fill: #F68E00;}
</style>
<path class="st0" d="M100,50.5c0,27.6-22.4,50-50,50c-14.6,0-27.7-6.2-36.8-16.1c-2.4-2.6-4.5-5.5-6.3-8.5C2.5,68.4,0,59.7,0,50.5
	c0-27.6,22.4-50,50-50c9.2,0,17.9,2.5,25.3,6.9c3.1,1.8,5.9,3.9,8.5,6.3C93.8,22.8,100,35.9,100,50.5L100,50.5z M100,50.5"/>
<path class="st1" d="M100,50.5c0,27-21.4,49-48.1,50c-26.8-1-48.1-23-48.1-50s21.4-49,48.1-50C78.6,1.5,100,23.5,100,50.5L100,50.5z
	 M100,50.5"/>
<path class="st2" d="M83.8,13.7L13.2,84.4c-2.4-2.6-4.5-5.5-6.3-8.5L75.3,7.4C78.4,9.2,81.2,11.3,83.8,13.7L83.8,13.7z M83.8,13.7"
	/>
<path class="st2" d="M96.6,32.2L31.7,97.1c-4.6-1.8-8.8-4.3-12.7-7.3l70.2-70.2C92.3,23.4,94.7,27.6,96.6,32.2L96.6,32.2z
	 M96.6,32.2"/>
<path class="st3" d="M88.9,50.5C88.9,72,71.5,89.4,50,89.4c-7.5,0-14.5-2.1-20.4-5.8c-2.6-1.6-5-3.5-7.1-5.6c-1.6-1.6-3-3.3-4.3-5.1
	c-1.8-2.5-3.2-5.2-4.4-8.1c-1.7-4.3-2.6-8.9-2.7-13.8c0-0.2,0-0.3,0-0.5C11.1,29,28.5,11.6,50,11.6c0.2,0,0.3,0,0.5,0
	c4.9,0.1,9.5,1,13.8,2.7c2.9,1.1,5.6,2.6,8.1,4.4c1.8,1.3,3.5,2.7,5.1,4.3c2.1,2.1,4,4.5,5.6,7.1C86.7,36,88.9,43,88.9,50.5
	L88.9,50.5z M88.9,50.5"/>
<path class="st4" d="M77.5,23L22.5,78c-1.6-1.6-3-3.3-4.3-5.1c-1.8-2.5-3.2-5.2-4.4-8.1c-1.7-4.3-2.6-8.9-2.7-13.8
	c0-0.2,0-0.3,0-0.5C11.1,29,28.5,11.6,50,11.6c0.2,0,0.3,0,0.5,0c4.9,0.1,9.5,1,13.8,2.7c2.9,1.1,5.6,2.6,8.1,4.4
	C74.2,20,75.9,21.5,77.5,23L77.5,23z M77.5,23"/>
<path class="st5" d="M88.9,50.5C88.9,72,71.5,89.4,50,89.4c-0.7,0-1.5,0-2.2-0.1c20.4-1.1,36.7-18.1,36.7-38.8S68.2,12.8,47.8,11.7
	c0.7,0,1.5-0.1,2.2-0.1C71.5,11.6,88.9,29,88.9,50.5L88.9,50.5z M88.9,50.5"/>
<g>
	<g>
		<path class="st2" d="M67.6,51.8L53.2,25.7c-0.6-1.1-1.8-1.8-3-1.8c-1.3,0-2.4,0.7-3,1.8L32.4,51.8c-0.7,1.2-0.6,2.7,0.3,3.8
			L47,74.7c0.7,0.9,1.7,1.4,2.8,1.4h0.6c1.1,0,2.1-0.5,2.8-1.4l2.6-3.5c0.7-0.9,0.5-2.2-0.4-2.9c-0.9-0.7-2.2-0.5-2.8,0.4L50.1,72
			L39.8,58.2l9.7,3.6c0.2,0.1,0.5,0.1,0.7,0.1c0.2,0,0.5,0,0.7-0.1l9.2-3.4L58,61.1c-0.7,0.9-0.5,2.3,0.5,2.9
			c0.9,0.6,2.1,0.4,2.8-0.5l6.1-8C68.2,54.5,68.3,53,67.6,51.8L67.6,51.8z M48.1,56.9l-8.5-3.2l8.5-3.2V56.9z M52.2,50.6l8.5,3.2
			L52.2,57V50.6z M61.9,49.9l-9.7-3.6V32.3L61.9,49.9z M48.1,32.2v14L38.1,50L48.1,32.2z M48.1,32.2"/>
	</g>
</g>
<g>
	<g>
		<path class="st5" d="M63.6,51.8L49.2,25.7c-0.6-1.1-1.8-1.8-3-1.8c-1.3,0-2.4,0.7-3,1.8L28.4,51.8c-0.7,1.2-0.6,2.7,0.3,3.8
			L43,74.7c0.7,0.9,1.7,1.4,2.8,1.4h0.6c1.1,0,2.1-0.5,2.8-1.4l2.6-3.5c0.7-0.9,0.5-2.2-0.4-2.9c-0.9-0.7-2.2-0.5-2.8,0.4L46.1,72
			L35.8,58.2l9.7,3.6c0.2,0.1,0.5,0.1,0.7,0.1c0.2,0,0.5,0,0.7-0.1l9.2-3.4L54,61.1c-0.7,0.9-0.5,2.3,0.5,2.9
			c0.9,0.6,2.1,0.4,2.8-0.5l6.1-8C64.2,54.5,64.3,53,63.6,51.8L63.6,51.8z M44.1,56.9l-8.5-3.2l8.5-3.2V56.9z M48.2,50.6l8.5,3.2
			L48.2,57V50.6z M57.9,49.9l-9.7-3.6V32.3L57.9,49.9z M44.1,32.2v14L34.1,50L44.1,32.2z M44.1,32.2"/>
	</g>
</g>
<g>
	<g>
		<path class="st2" d="M67.6,51.8L53.2,25.7c-0.6-1.1-1.8-1.8-3-1.8c-1.3,0-2.4,0.7-3,1.8L32.4,51.8c-0.7,1.2-0.6,2.7,0.3,3.8
			L47,74.7c0.7,0.9,1.7,1.4,2.8,1.4h0.6c1.1,0,2.1-0.5,2.8-1.4l2.6-3.5c0.7-0.9,0.5-2.2-0.4-2.9c-0.9-0.7-2.2-0.5-2.8,0.4L50.1,72
			L39.8,58.2l9.7,3.6c0.2,0.1,0.5,0.1,0.7,0.1c0.2,0,0.5,0,0.7-0.1l9.2-3.4L58,61.1c-0.7,0.9-0.5,2.3,0.5,2.9
			c0.9,0.6,2.1,0.4,2.8-0.5l6.1-8C68.2,54.5,68.3,53,67.6,51.8L67.6,51.8z M48.1,56.9l-8.5-3.2l8.5-3.2V56.9z M52.2,50.6l8.5,3.2
			L52.2,57V50.6z M61.9,49.9l-9.7-3.6V32.3L61.9,49.9z M48.1,32.2v14L38.1,50L48.1,32.2z M48.1,32.2"/>
	</g>
</g>
</svg>
